#!OML:ASF H:\Dans Jumps\Project 1\Capture day 1\Session 1\subject.ASF
:FULLY-SPECIFIED
:DEGREES
466
root 0.631023 17.7507 6.86663 8.25533 -1.8645 -1.22478
lowerback -0.100062 0.156767 -0.569663
upperback 3.07154 0.179891 1.43599
thorax 3.20426 0.0523417 1.80096
lowerneck -14.0268 0.103584 -1.36201
upperneck 32.9102 0.383549 0.439423
head 13.4138 0.0530471 0.470096
rclavicle -8.44835e-016 -4.17448e-015
rhumerus -22.6544 -13.1613 -82.0275
rradius 26.0125
rwrist 30.5771
rhand -20.4127 -25.3653
rfingers 7.12502
rthumb 5.94138 -55.262
lclavicle -8.44835e-016 -4.17448e-015
lhumerus -19.4566 0.855859 87.1731
lradius 22.7813
lwrist 7.78647
lhand -26.5978 -6.77127
lfingers 7.12502
lthumb -0.031665 23.2085
rfemur -15.1561 -2.28774 19.562
rtibia 20.933
rfoot -12.2853 0.843151
rtoes 12.6415
lfemur -14.4305 6.9925 -18.3415
ltibia 17.783
lfoot -8.69431 4.76707
ltoes -1.47298
467
root 0.630906 17.7506 6.86938 8.23178 -1.83506 -1.2284
lowerback -0.130273 0.157482 -0.557855
upperback 3.07016 0.18043 1.4422
thorax 3.21988 0.0527498 1.80088
lowerneck -14.0308 0.0944653 -1.37949
upperneck 32.8947 0.370163 0.455337
head 13.408 0.047386 0.477346
rclavicle 5.56597e-015 -2.78299e-015
rhumerus -22.6477 -13.0719 -82.0827
rradius 26.0672
rwrist 30.5347
rhand -20.3753 -25.3955
rfingers 7.12502
rthumb 5.97753 -55.2912
lclavicle 5.56597e-015 -2.78299e-015
lhumerus -19.5314 1.01191 87.1491
lradius 22.5363
lwrist 7.58196
lhand -26.5853 -6.76358
lfingers 7.12502
lthumb -0.0195626 23.2162
rfemur -15.1025 -2.27778 19.5632
rtibia 20.9093
rfoot -12.29 0.81281
rtoes 12.6372
lfemur -14.3876 7.00177 -18.3321
ltibia 17.7643
lfoot -8.71694 4.73419
ltoes -1.44194
468
root 0.630794 17.7506 6.87185 8.21065 -1.80175 -1.2325
lowerback -0.164756 0.158371 -0.547252
upperback 3.07058 0.181139 1.45025
thorax 3.23978 0.0531458 1.80341
lowerneck -14.0473 0.0864778 -1.38923
upperneck 32.8839 0.359103 0.463478
head 13.407 0.0426498 0.480593
rclavicle -4.47266e-015 -6.95746e-015
rhumerus -22.6447 -12.9824 -82.128
rradius 26.1094
rwrist 30.4845
rhand -20.3438 -25.4209
rfingers 7.12502
rthumb 6.00793 -55.3157
lclavicle -4.47266e-015 -6.95746e-015
lhumerus -19.6113 1.16758 87.1263
lradius 22.2935
lwrist 7.38276
lhand -26.5742 -6.75029
lfingers 7.12502
lthumb -0.00882861 23.2295
rfemur -15.0515 -2.26775 19.5656
rtibia 20.8841
rfoot -12.2936 0.777175
rtoes 12.6349
lfemur -14.3486 7.00591 -18.3222
ltibia 17.7449
lfoot -8.73804 4.70421
ltoes -1.40565
469
root 0.630606 17.7506 6.87413 8.18986 -1.76446 -1.23622
lowerback -0.203722 0.160576 -0.538029
upperback 3.07111 0.183603 1.4586
thorax 3.26226 0.0543601 1.8071
lowerneck -14.0547 0.0769952 -1.39669
upperneck 32.8641 0.345296 0.470953
head 13.4002 0.0369939 0.482692
rclavicle 4.96962e-017 9.93923e-016
rhumerus -22.6568 -12.9095 -82.159
rradius 26.1417
rwrist 30.4491
rhand -20.3308 -25.4105
rfingers 7.12502
rthumb 6.02042 -55.305
lclavicle 4.96962e-017 9.93923e-016
lhumerus -19.7081 1.32605 87.1033
lradius 22.075
lwrist 7.17383
lhand -26.5561 -6.72425
lfingers 7.12502
lthumb 0.00859919 23.2555
rfemur -15.0001 -2.26003 19.5682
rtibia 20.8575
rfoot -12.2995 0.740176
rtoes 12.6444
lfemur -14.3102 7.01001 -18.3124
ltibia 17.7245
lfoot -8.76005 4.67121
ltoes -1.35863
470
root 0.630477 17.7506 6.87638 8.16954 -1.72472 -1.2378
lowerback -0.242003 0.163172 -0.530178
upperback 3.0702 0.186637 1.46645
thorax 3.28283 0.0558501 1.81107
lowerneck -14.0646 0.0674194 -1.40361
upperneck 32.8421 0.331327 0.478273
head 13.393 0.0313398 0.484608
rclavicle -3.97569e-015 -1.13307e-014
rhumerus -22.681 -12.8468 -82.1788
rradius 26.1659
rwrist 30.4181
rhand -20.3212 -25.3968
rfingers 7.12502
rthumb 6.02967 -55.291
lclavicle -3.97569e-015 -1.13307e-014
lhumerus -19.8149 1.48105 87.0799
lradius 21.8661
lwrist 6.96124
lhand -26.5341 -6.67723
lfingers 7.12502
lthumb 0.0299091 23.3025
rfemur -14.9473 -2.26005 19.5689
rtibia 20.829
rfoot -12.3068 0.707269
rtoes 12.657
lfemur -14.272 7.01416 -18.305
ltibia 17.7036
lfoot -8.78374 4.63479
ltoes -1.3037
471
root 0.630453 17.7506 6.87862 8.15024 -1.68128 -1.23712
lowerback -0.28114 0.165352 -0.52361
upperback 3.06866 0.189148 1.47396
thorax 3.30326 0.0570543 1.81539
lowerneck -14.0741 0.0586184 -1.41146
upperneck 32.8119 0.31831 0.486982
head 13.3822 0.0262287 0.48734
rclavicle 2.48481e-015 -1.39149e-015
rhumerus -22.7152 -12.7928 -82.1889
rradius 26.184
rwrist 30.3887
rhand -20.3139 -25.3861
rfingers 7.12502
rthumb 6.03678 -55.2801
lclavicle 2.48481e-015 -1.39149e-015
lhumerus -19.932 1.63326 87.0565
lradius 21.6644
lwrist 6.73896
lhand -26.5105 -6.64228
lfingers 7.12502
lthumb 0.0526558 23.3375
rfemur -14.8935 -2.26723 19.5671
rtibia 20.7983
rfoot -12.3158 0.678488
rtoes 12.6813
lfemur -14.2355 7.01632 -18.3
ltibia 17.6835
lfoot -8.80844 4.59517
ltoes -1.24576
472
root 0.630469 17.7506 6.8809 8.13176 -1.63486 -1.23629
lowerback -0.320743 0.167201 -0.516166
upperback 3.06565 0.191204 1.48144
thorax 3.32245 0.0580736 1.81918
lowerneck -14.0798 0.0506848 -1.41989
upperneck 32.7726 0.306543 0.496102
head 13.3666 0.0217068 0.490471
rclavicle -6.06293e-015 -1.64991e-014
rhumerus -22.7617 -12.7506 -82.1891
rradius 26.1968
rwrist 30.3667
rhand -20.31 -25.3786
rfingers 7.12502
rthumb 6.04052 -55.2725
lclavicle -6.06293e-015 -1.64991e-014
lhumerus -20.0516 1.76272 87.0346
lradius 21.461
lwrist 6.52548
lhand -26.4784 -6.59263
lfingers 7.12502
lthumb 0.0837222 23.3871
rfemur -14.8378 -2.27778 19.565
rtibia 20.7647
rfoot -12.3256 0.651167
rtoes 12.7099
lfemur -14.2006 7.01872 -18.295
ltibia 17.6643
lfoot -8.83493 4.55053
ltoes -1.18439
473
root 0.630512 17.7505 6.88322 8.1136 -1.5862 -1.23475
lowerback -0.357862 0.168503 -0.509509
upperback 3.05987 0.192575 1.48887
thorax 3.3374 0.0587737 1.82331
lowerneck -14.0794 0.0431802 -1.42743
upperneck 32.7254 0.295592 0.503593
head 13.3463 0.0174809 0.492873
rclavicle 9.44227e-016 1.66979e-014
rhumerus -22.8224 -12.7203 -82.1797
rradius 26.2047
rwrist 30.354
rhand -20.312 -25.3713
rfingers 7.12502
rthumb 6.03856 -55.2653
lclavicle 9.44227e-016 1.66979e-014
lhumerus -20.1777 1.866 87.0148
lradius 21.2596
lwrist 6.32296
lhand -26.4436 -6.5458
lfingers 7.12502
lthumb 0.117326 23.4339
rfemur -14.7805 -2.29284 19.5622
rtibia 20.7282
rfoot -12.3356 0.625637
rtoes 12.7295
lfemur -14.167 7.0206 -18.2906
ltibia 17.6461
lfoot -8.86122 4.50157
ltoes -1.12406
474
root 0.630503 17.7504 6.88562 8.09513 -1.5356 -1.23389
lowerback -0.395741 0.168727 -0.503684
upperback 3.05416 0.192485 1.49737
thorax 3.3529 0.0587022 1.82896
lowerneck -14.0766 0.0363867 -1.43318
upperneck 32.6705 0.286458 0.507103
head 13.3221 0.0137764 0.493628
rclavicle -1.78906e-015 6.16232e-015
rhumerus -22.8928 -12.6979 -82.162
rradius 26.209
rwrist 30.3485
rhand -20.3103 -25.3708
rfingers 7.12502
rthumb 6.04026 -55.2647
lclavicle -1.78906e-015 6.16232e-015
lhumerus -20.3079 1.95303 86.9956
lradius 21.0656
lwrist 6.12455
lhand -26.3978 -6.47172
lfingers 7.12502
lthumb 0.161564 23.508
rfemur -14.7215 -2.30799 19.5601
rtibia 20.6892
rfoot -12.3437 0.600072
rtoes 12.7525
lfemur -14.134 7.02092 -18.285
ltibia 17.6289
lfoot -8.88615 4.45156
ltoes -1.06298
